HIERARCHY
ROOT character_A_root
{
	OFFSET 0.000000 0.000000 0.000000
	CHANNELS 6 Xposition Yposition Zposition Xrotation Yrotation Zrotation
	JOINT character_A_pelvis
	{
		OFFSET 0.000000 0.000000 0.000000
		CHANNELS 3 Xrotation Yrotation Zrotation
		JOINT character_A_spine
		{
			OFFSET -0.006400 0.538076 0.000000
			CHANNELS 3 Xrotation Yrotation Zrotation
			JOINT character_A_head
			{
				OFFSET 0.012744 0.245383 0.000000
				CHANNELS 3 Xrotation Yrotation Zrotation
				JOINT character_A_nose
				{
					OFFSET -0.008787 -0.131621 -0.002605
					CHANNELS 3 Xrotation Yrotation Zrotation
					End Site
					{
						OFFSET 0.000000 0.050000 0.000000
					}
				}
			}
			JOINT character_A_left_shoulder
			{
				OFFSET 0.108057 -0.069769 0.094471
				CHANNELS 3 Xrotation Yrotation Zrotation
				JOINT character_A_left_elbow
				{
					OFFSET 0.031628 -0.239596 -0.139088
					CHANNELS 3 Xrotation Yrotation Zrotation
					JOINT character_A_left_wrist
					{
						OFFSET 0.010597 -0.101834 -0.186326
						CHANNELS 3 Xrotation Yrotation Zrotation
						End Site
						{
							OFFSET 0.000000 0.050000 0.000000
						}
					}
				}
			}
			JOINT character_A_right_shoulder
			{
				OFFSET -0.114595 -0.059038 0.102763
				CHANNELS 3 Xrotation Yrotation Zrotation
				JOINT character_A_right_elbow
				{
					OFFSET -0.054650 -0.246550 -0.079184
					CHANNELS 3 Xrotation Yrotation Zrotation
					JOINT character_A_right_wrist
					{
						OFFSET -0.039546 -0.120930 -0.167408
						CHANNELS 3 Xrotation Yrotation Zrotation
						End Site
						{
							OFFSET 0.000000 0.050000 0.000000
						}
					}
				}
			}
		}
		JOINT character_A_left_hip
		{
			OFFSET 0.064495 -0.018473 0.101805
			CHANNELS 3 Xrotation Yrotation Zrotation
			JOINT character_A_left_knee
			{
				OFFSET -0.013415 -0.404926 0.097567
				CHANNELS 3 Xrotation Yrotation Zrotation
				JOINT character_A_left_ankle
				{
					OFFSET -0.033827 -0.357830 0.207383
					CHANNELS 3 Xrotation Yrotation Zrotation
					JOINT character_A_left_big_toe
					{
						OFFSET -0.008355 -0.113888 0.066374
						CHANNELS 3 Xrotation Yrotation Zrotation
						End Site
						{
							OFFSET 0.000000 0.050000 0.000000
						}
					}
					JOINT character_A_left_small_toe
					{
						OFFSET 0.019861 -0.105049 0.045203
						CHANNELS 3 Xrotation Yrotation Zrotation
						End Site
						{
							OFFSET 0.000000 0.050000 0.000000
						}
					}
					JOINT character_A_left_heel
					{
						OFFSET -0.015740 -0.054451 0.041248
						CHANNELS 3 Xrotation Yrotation Zrotation
						End Site
						{
							OFFSET 0.000000 0.050000 0.000000
						}
					}
				}
			}
		}
		JOINT character_A_right_hip
		{
			OFFSET -0.060818 -0.017714 0.289385
			CHANNELS 3 Xrotation Yrotation Zrotation
			JOINT character_A_right_knee
			{
				OFFSET 0.024497 -0.400024 0.102706
				CHANNELS 3 Xrotation Yrotation Zrotation
				JOINT character_A_right_ankle
				{
					OFFSET 0.016037 -0.354408 0.210815
					CHANNELS 3 Xrotation Yrotation Zrotation
					JOINT character_A_right_big_toe
					{
						OFFSET -0.000881 -0.112993 0.055364
						CHANNELS 3 Xrotation Yrotation Zrotation
						End Site
						{
							OFFSET 0.000000 0.050000 0.000000
						}
					}
					JOINT character_A_right_small_toe
					{
						OFFSET -0.021559 -0.104872 0.042888
						CHANNELS 3 Xrotation Yrotation Zrotation
						End Site
						{
							OFFSET 0.000000 0.050000 0.000000
						}
					}
					JOINT character_A_right_heel
					{
						OFFSET 0.008712 -0.057795 0.038858
						CHANNELS 3 Xrotation Yrotation Zrotation
						End Site
						{
							OFFSET 0.000000 0.050000 0.000000
						}
					}
				}
			}
		}
	}
}
MOTION
Frames: 5
Frame Time: 0.03333333
0.686922 -0.159453 1.720621 0.000000 0.000000 0.000000 -1.176243 1.811072 -1.321783 12.494388 -3.096094 5.628356 -12.076089 2.875233 -17.340691 -0.000000 0.000000 -0.000000 -10.942304 0.213839 0.151630 12.020431 21.027634 -17.181134 -0.000000 0.000000 -0.000000 -18.414430 11.663604 -20.243388 37.684771 -30.654948 51.370856 0.000000 0.000000 -0.000000 14.475566 -4.302720 -4.864642 -24.176978 -4.357879 -4.292164 26.749060 2.837206 -3.787442 -0.000000 0.000000 -0.000000 -0.000000 0.000000 -0.000000 -0.000000 0.000000 -0.000000 15.216455 -0.096833 2.798478 -3.958523 0.817900 1.032735 14.104764 45.733998 -52.366024 -0.000000 0.000000 -0.000000 -0.000000 0.000000 -0.000000 -0.000000 0.000000 -0.000000
0.704260 -0.159877 1.704934 0.000000 0.000000 0.000000 -0.688514 1.928269 -1.645285 13.398948 -3.260828 5.820005 -13.464268 3.039593 -16.030732 0.000000 0.000000 -0.000000 -12.951003 0.507208 0.139431 13.669188 20.492599 -16.797993 -0.000000 0.000000 0.000000 -21.469292 12.573529 -19.799894 40.143982 -30.439458 51.756783 -0.000000 0.000000 -0.000000 14.049157 -4.347722 -4.513196 -24.235672 -4.431727 -4.478027 26.390894 5.169487 -4.445836 0.000000 0.000000 -0.000000 0.000000 0.000000 -0.000000 0.000000 0.000000 -0.000000 14.751666 -0.088833 3.260768 -4.511377 0.746179 0.889102 13.113881 45.660807 -51.204221 -0.000000 0.000000 -0.000000 -0.000000 0.000000 -0.000000 -0.000000 0.000000 -0.000000
0.722003 -0.161018 1.675844 0.000000 0.000000 0.000000 0.000161 1.652993 -2.090825 15.432431 -3.164699 6.432851 -16.143426 3.578683 -15.453594 -0.000000 0.000000 0.000000 -15.872099 1.166119 -0.053063 14.585070 19.984308 -16.394230 0.000000 0.000000 0.000000 -22.631592 12.304863 -19.581022 38.317111 -30.367343 51.082497 -0.000000 0.000000 0.000000 13.407068 -3.945140 -4.001626 -25.130629 -4.464176 -4.906368 26.829523 8.991133 -5.118664 0.000000 0.000000 -0.000000 0.000000 0.000000 -0.000000 0.000000 0.000000 -0.000000 13.886205 0.291253 3.732985 -5.240894 0.673941 0.752651 8.915068 42.939119 -45.993486 0.000000 0.000000 0.000000 0.000000 0.000000 0.000000 0.000000 0.000000 0.000000
0.739890 -0.161454 1.654501 0.000000 0.000000 0.000000 0.355646 1.604933 -2.288963 16.189919 -3.182882 6.727880 -17.222048 3.839726 -16.311419 -0.000000 0.000000 -0.000000 -17.135354 1.445627 -0.144752 14.926812 19.890224 -16.270752 0.000000 0.000000 0.000000 -22.570457 12.028902 -19.686535 37.113138 -30.068818 50.650418 0.000000 0.000000 -0.000000 13.086148 -3.793222 -3.617914 -25.459384 -4.627961 -5.594564 26.637582 11.081975 -5.043203 -0.000000 0.000000 0.000000 -0.000000 0.000000 0.000000 -0.000000 0.000000 0.000000 13.567505 0.423292 4.032847 -5.531287 0.617620 0.611192 2.488100 38.160064 -38.982838 -0.000000 0.000000 0.000000 -0.000000 0.000000 0.000000 -0.000000 0.000000 0.000000
0.755477 -0.161503 1.622448 0.000000 0.000000 0.000000 1.064053 1.223789 -2.592432 15.574113 -2.769169 6.970770 -17.314279 3.881064 -16.746680 -0.000000 0.000000 0.000000 -17.799854 1.301126 0.022675 15.301864 20.264750 -16.650193 0.000000 0.000000 -0.000000 -21.036349 11.397032 -20.058613 35.299776 -29.718617 50.207730 0.000000 0.000000 -0.000000 12.391200 -3.331900 -3.261003 -26.183617 -4.684729 -6.078992 26.897072 12.851925 -5.545113 -0.000000 0.000000 0.000000 -0.000000 0.000000 0.000000 -0.000000 0.000000 0.000000 12.785203 0.858340 4.321239 -5.895973 0.663466 0.639459 -0.817870 34.035762 -35.052830 -0.000000 0.000000 0.000000 -0.000000 0.000000 0.000000 -0.000000 0.000000 0.000000
